<svg width="521" height="112" viewBox="0 0 521 112" fill="none" xmlns="http://www.w3.org/2000/svg">
<path d="M173.849 79.4363H169.144C168.799 79.4363 168.563 79.3736 168.438 79.2481C168.312 79.154 168.25 78.9187 168.25 78.5423V35.2061C168.25 34.861 168.312 34.6257 168.438 34.5003C168.563 34.3748 168.799 34.312 169.144 34.312H173.849C174.194 34.312 174.429 34.3748 174.555 34.5003C174.68 34.6257 174.743 34.861 174.743 35.2061V78.5423C174.743 78.9187 174.68 79.154 174.555 79.2481C174.429 79.3736 174.194 79.4363 173.849 79.4363ZM158.039 66.3555H143.641C142.888 66.3555 142.26 66.3084 141.759 66.2143C141.288 66.1202 140.912 65.9633 140.629 65.7438C140.378 65.4928 140.206 65.1477 140.112 64.7086C140.018 64.2694 139.97 63.6891 139.97 62.9676V37.6999C139.97 37.1039 140.253 36.8059 140.817 36.8059H145.57C146.197 36.8059 146.511 37.1039 146.511 37.6999V47.0165H155.122V37.6528C155.122 37.0255 155.42 36.7118 156.016 36.7118H160.721C161.348 36.7118 161.662 37.0255 161.662 37.6528V63.1088C161.662 64.3322 161.411 65.1791 160.909 65.6497C160.439 66.1202 159.482 66.3555 158.039 66.3555ZM155.122 52.3335H146.511V60.3326C146.511 60.8031 146.746 61.0384 147.217 61.0384H154.416C154.886 61.0384 155.122 60.8031 155.122 60.3326V52.3335ZM191.667 58.1682C189.942 58.1682 188.357 57.8701 186.914 57.2741C185.503 56.6468 184.295 55.8312 183.291 54.8274C182.287 53.7922 181.503 52.6002 180.939 51.2513C180.374 49.9024 180.092 48.4908 180.092 47.0165C180.092 45.5108 180.374 44.0835 180.939 42.7346C181.503 41.3857 182.287 40.2094 183.291 39.2056C184.295 38.1704 185.503 37.3548 186.914 36.7588C188.357 36.1314 189.942 35.8178 191.667 35.8178C193.486 35.8178 195.133 36.1471 196.607 36.8059C198.082 37.4333 199.337 38.2959 200.372 39.3938H209.547V35.2061C209.547 34.861 209.61 34.6257 209.735 34.5003C209.861 34.3748 210.096 34.312 210.441 34.312H215.146C215.492 34.312 215.727 34.3748 215.852 34.5003C215.978 34.6257 216.041 34.861 216.041 35.2061V59.3915C216.041 59.768 215.978 60.0032 215.852 60.0973C215.727 60.1914 215.492 60.2385 215.146 60.2385H210.441C210.096 60.2385 209.861 60.1914 209.735 60.0973C209.61 60.0032 209.547 59.768 209.547 59.3915V54.7332H200.231C199.195 55.7998 197.956 56.6468 196.513 57.2741C195.07 57.8701 193.455 58.1682 191.667 58.1682ZM201.877 79.8127C199.838 79.8127 197.956 79.5775 196.231 79.1069C194.506 78.6364 193 77.9777 191.714 77.1307C190.459 76.3151 189.471 75.3427 188.75 74.2134C188.028 73.0841 187.667 71.845 187.667 70.4962C187.667 69.21 188.028 68.018 188.75 66.9201C189.471 65.7908 190.459 64.8184 191.714 64.0028C193 63.1558 194.506 62.4971 196.231 62.0265C197.956 61.556 199.838 61.3207 201.877 61.3207C203.822 61.3207 205.657 61.556 207.383 62.0265C209.139 62.4657 210.676 63.1088 211.994 63.9557C213.311 64.7713 214.362 65.7438 215.146 66.873C215.931 67.971 216.323 69.1787 216.323 70.4962C216.323 71.845 215.931 73.0841 215.146 74.2134C214.362 75.3427 213.311 76.3151 211.994 77.1307C210.676 77.9777 209.139 78.6364 207.383 79.1069C205.657 79.5775 203.822 79.8127 201.877 79.8127ZM201.877 66.4496C199.525 66.4496 197.674 66.873 196.325 67.72C195.008 68.567 194.349 69.5394 194.349 70.6373C194.349 71.7039 195.008 72.6292 196.325 73.4135C197.674 74.2291 199.525 74.6369 201.877 74.6369C202.975 74.6369 203.995 74.5271 204.936 74.3075C205.877 74.0879 206.693 73.7899 207.383 73.4135C208.073 73.0684 208.606 72.6449 208.982 72.143C209.39 71.6725 209.594 71.1706 209.594 70.6373C209.594 70.104 209.39 69.5865 208.982 69.0846C208.606 68.5827 208.073 68.1435 207.383 67.7671C206.693 67.3593 205.877 67.0456 204.936 66.826C203.995 66.575 202.975 66.4496 201.877 66.4496ZM191.667 41.4171C190.851 41.4171 190.114 41.574 189.455 41.8877C188.828 42.17 188.279 42.5621 187.808 43.064C187.338 43.5659 186.977 44.1619 186.726 44.852C186.475 45.5421 186.35 46.2636 186.35 47.0165C186.35 47.7693 186.475 48.4908 186.726 49.1809C186.977 49.8397 187.338 50.42 187.808 50.9219C188.279 51.4238 188.828 51.8316 189.455 52.1453C190.114 52.4276 190.851 52.5688 191.667 52.5688C192.482 52.5688 193.22 52.4276 193.878 52.1453C194.568 51.8316 195.149 51.4238 195.619 50.9219C196.09 50.42 196.451 49.8397 196.702 49.1809C196.984 48.4908 197.125 47.7693 197.125 47.0165C197.125 46.2636 196.984 45.5421 196.702 44.852C196.451 44.1619 196.09 43.5659 195.619 43.064C195.149 42.5621 194.568 42.17 193.878 41.8877C193.22 41.574 192.482 41.4171 191.667 41.4171ZM209.547 44.6168H203.101C203.289 45.4323 203.383 46.2323 203.383 47.0165C203.383 47.8948 203.289 48.7261 203.101 49.5103H209.547V44.6168ZM256.35 79.4363H251.645C251.3 79.4363 251.064 79.3736 250.939 79.2481C250.813 79.154 250.751 78.9187 250.751 78.5423V35.2061C250.751 34.861 250.813 34.6257 250.939 34.5003C251.064 34.3748 251.3 34.312 251.645 34.312H256.35C256.695 34.312 256.93 34.3748 257.056 34.5003C257.181 34.6257 257.244 34.861 257.244 35.2061V78.5423C257.244 78.9187 257.181 79.154 257.056 79.2481C256.93 79.3736 256.695 79.4363 256.35 79.4363ZM247.269 66.9201C245.857 67.2024 244.289 67.4534 242.563 67.673C240.838 67.8925 239.05 68.0807 237.199 68.2376C235.38 68.3631 233.545 68.4415 231.694 68.4729C229.874 68.5042 228.149 68.4885 226.518 68.4258C225.138 68.3944 224.197 68.1278 223.695 67.6259C223.224 67.124 222.989 66.277 222.989 65.085V52.8041C222.989 51.8002 223.209 51.0944 223.648 50.6866C224.087 50.2789 224.808 50.075 225.812 50.075H236.917C237.199 50.075 237.372 50.0436 237.434 49.9808C237.529 49.8867 237.576 49.6985 237.576 49.4162V43.6757C237.576 43.3934 237.529 43.2208 237.434 43.1581C237.372 43.064 237.199 43.0169 236.917 43.0169H224.212C223.585 43.0169 223.271 42.7189 223.271 42.1229V38.5469C223.271 38.2018 223.334 37.9665 223.46 37.8411C223.616 37.7156 223.867 37.6528 224.212 37.6528H240.822C241.512 37.6528 242.061 37.7156 242.469 37.8411C242.908 37.9352 243.238 38.1077 243.457 38.3586C243.708 38.6096 243.865 38.939 243.928 39.3468C244.022 39.7546 244.069 40.2721 244.069 40.8995V51.7689C244.069 53.0864 243.802 53.9804 243.269 54.4509C242.736 54.8901 241.904 55.1097 240.775 55.1097H230.047C229.639 55.1097 229.435 55.3136 229.435 55.7214V62.5441C229.435 62.9519 229.671 63.1558 230.141 63.1558C232.933 63.2186 235.74 63.1401 238.564 62.9206C241.387 62.701 244.053 62.3559 246.563 61.8854C246.908 61.8226 247.112 61.854 247.174 61.9795C247.269 62.0736 247.347 62.2461 247.41 62.4971L248.021 65.979C248.084 66.3241 248.053 66.5594 247.927 66.6848C247.833 66.7789 247.614 66.8574 247.269 66.9201ZM297.224 66.2613H292.472C292.127 66.2613 291.891 66.1986 291.766 66.0731C291.64 65.9163 291.578 65.6653 291.578 65.3203V35.2061C291.578 34.61 291.876 34.312 292.472 34.312H297.224C297.789 34.312 298.071 34.61 298.071 35.2061V65.3673C298.071 65.7124 298.008 65.9477 297.883 66.0731C297.789 66.1986 297.569 66.2613 297.224 66.2613ZM281.932 58.9681H267.392C266.671 58.9681 266.075 58.9367 265.604 58.874C265.165 58.7798 264.82 58.623 264.569 58.4034C264.318 58.1525 264.145 57.8231 264.051 57.4153C263.957 56.9761 263.91 56.4115 263.91 55.7214V40.429C263.91 39.0801 264.145 38.2175 264.616 37.8411C265.118 37.4646 265.965 37.2764 267.157 37.2764H281.932C282.59 37.2764 283.124 37.3078 283.531 37.3705C283.939 37.4333 284.269 37.5744 284.52 37.794C284.77 38.0136 284.943 38.343 285.037 38.7821C285.131 39.1899 285.178 39.7389 285.178 40.429V55.7214C285.178 56.4115 285.131 56.9761 285.037 57.4153C284.943 57.8231 284.77 58.1525 284.52 58.4034C284.3 58.623 283.971 58.7798 283.531 58.874C283.124 58.9367 282.59 58.9681 281.932 58.9681ZM298.541 78.6835H273.509C272.819 78.6835 272.254 78.6207 271.815 78.4952C271.407 78.4011 271.078 78.2129 270.827 77.9306C270.576 77.6483 270.403 77.2875 270.309 76.8484C270.215 76.4092 270.168 75.8603 270.168 75.2015V64.8027C270.168 64.1439 270.482 63.8146 271.109 63.8146H275.721C276.379 63.8146 276.709 64.1439 276.709 64.8027V72.5665C276.709 73.037 276.96 73.2723 277.462 73.2723H298.541C298.792 73.2723 299.012 73.3194 299.2 73.4135C299.388 73.5389 299.483 73.7742 299.483 74.1193V77.8365C299.483 78.2757 299.388 78.5266 299.2 78.5894C299.012 78.6521 298.792 78.6835 298.541 78.6835ZM278.779 43.5345C278.779 43.1267 278.732 42.8758 278.638 42.7817C278.575 42.6562 278.356 42.5935 277.979 42.5935H271.25C270.843 42.5935 270.576 42.6405 270.451 42.7346C270.356 42.8287 270.309 43.0954 270.309 43.5345V52.757C270.309 53.1962 270.356 53.4628 270.451 53.5569C270.576 53.651 270.843 53.6981 271.25 53.6981H277.979C278.356 53.6981 278.575 53.6353 278.638 53.5099C278.732 53.3844 278.779 53.1334 278.779 52.757V43.5345ZM343.744 53.0864H337.91V65.085C337.91 65.4301 337.847 65.6653 337.722 65.7908C337.627 65.9163 337.408 65.979 337.063 65.979H332.31C331.965 65.979 331.714 65.9163 331.558 65.7908C331.432 65.6653 331.369 65.4301 331.369 65.085V35.2061C331.369 34.61 331.683 34.312 332.31 34.312H337.063C337.627 34.312 337.91 34.61 337.91 35.2061V47.7223H343.744C343.995 47.7223 344.215 47.7536 344.403 47.8164C344.591 47.8791 344.685 48.1144 344.685 48.5222V52.2394C344.685 52.5845 344.591 52.8197 344.403 52.9452C344.246 53.0393 344.027 53.0864 343.744 53.0864ZM305.913 62.5441C305.38 62.7637 305.035 62.8735 304.878 62.8735C304.753 62.8421 304.612 62.6696 304.455 62.3559L302.667 58.6857C302.51 58.372 302.447 58.1525 302.479 58.027C302.541 57.8701 302.792 57.6976 303.231 57.5094C305.208 56.6624 307.011 55.69 308.643 54.5921C310.305 53.4628 311.764 52.2865 313.019 51.0631C314.305 49.8083 315.371 48.5222 316.218 47.2047C317.065 45.8558 317.692 44.5226 318.1 43.2051C318.226 42.8601 318.257 42.6091 318.194 42.4523C318.132 42.2641 317.834 42.17 317.3 42.17H305.443C305.035 42.17 304.784 42.0759 304.69 41.8877C304.596 41.6994 304.549 41.4642 304.549 41.1818V37.794C304.549 37.4489 304.612 37.2137 304.737 37.0882C304.863 36.9314 305.114 36.8529 305.49 36.8529H321.629C323.041 36.8529 323.998 37.1039 324.5 37.6058C325.033 38.0763 325.299 38.9076 325.299 40.0996C325.299 42.0445 324.86 44.0835 323.982 46.2166C323.104 48.3497 321.833 50.4357 320.171 52.4747C318.508 54.4823 316.469 56.3644 314.054 58.1211C311.67 59.8778 308.956 61.3521 305.913 62.5441ZM338.851 78.6835H313.207C312.548 78.6835 311.999 78.6207 311.56 78.4952C311.152 78.4011 310.823 78.2286 310.572 77.9777C310.352 77.7267 310.195 77.3816 310.101 76.9425C310.007 76.5033 309.96 75.9544 309.96 75.2956V64.8027C309.96 64.1439 310.274 63.8146 310.901 63.8146H315.512C316.171 63.8146 316.5 64.1439 316.5 64.8027V72.6136C316.5 73.0841 316.736 73.3194 317.206 73.3194H338.851C339.102 73.3194 339.321 73.3664 339.51 73.4605C339.729 73.586 339.839 73.8213 339.839 74.1663V77.8365C339.839 78.2757 339.729 78.5266 339.51 78.5894C339.321 78.6521 339.102 78.6835 338.851 78.6835ZM384.995 53.0864H379.16V65.085C379.16 65.4301 379.098 65.6653 378.972 65.7908C378.878 65.9163 378.658 65.979 378.313 65.979H373.561C373.216 65.979 372.965 65.9163 372.808 65.7908C372.683 65.6653 372.62 65.4301 372.62 65.085V35.2061C372.62 34.61 372.934 34.312 373.561 34.312H378.313C378.878 34.312 379.16 34.61 379.16 35.2061V47.7223H384.995C385.246 47.7223 385.465 47.7536 385.654 47.8164C385.842 47.8791 385.936 48.1144 385.936 48.5222V52.2394C385.936 52.5845 385.842 52.8197 385.654 52.9452C385.497 53.0393 385.277 53.0864 384.995 53.0864ZM369.844 58.1211C368.526 58.4034 366.989 58.6701 365.232 58.921C363.476 59.1406 361.672 59.3288 359.821 59.4856C357.971 59.6425 356.151 59.7523 354.363 59.815C352.606 59.8464 351.054 59.8307 349.705 59.768C348.576 59.7366 347.729 59.5327 347.164 59.1563C346.631 58.7485 346.364 57.8858 346.364 56.5683V40.0055C346.364 39.3781 346.411 38.8762 346.505 38.4998C346.599 38.092 346.772 37.794 347.023 37.6058C347.274 37.3862 347.603 37.245 348.011 37.1823C348.419 37.1196 348.952 37.0882 349.611 37.0882H365.891C366.519 37.0882 366.832 37.3548 366.832 37.8881V41.6053C366.832 42.1386 366.519 42.4052 365.891 42.4052H353.563C353.249 42.4052 353.061 42.468 352.999 42.5935C352.936 42.7189 352.904 42.8758 352.904 43.064V53.8392C352.904 54.3411 353.155 54.5921 353.657 54.5921C355.947 54.5921 358.378 54.498 360.951 54.3098C363.523 54.1216 366.158 53.7922 368.856 53.3216C369.326 53.2275 369.624 53.2432 369.75 53.3687C369.875 53.4942 369.969 53.6824 370.032 53.9333L370.549 56.9448C370.612 57.3839 370.597 57.6819 370.502 57.8388C370.408 57.9643 370.189 58.0584 369.844 58.1211ZM380.101 78.6835H354.457C353.108 78.6835 352.214 78.4482 351.775 77.9777C351.367 77.5071 351.163 76.6131 351.163 75.2956V64.9909C351.163 64.3322 351.493 64.0028 352.152 64.0028H356.763C357.39 64.0028 357.704 64.3322 357.704 64.9909V72.6136C357.704 73.0841 357.955 73.3194 358.457 73.3194H380.101C380.352 73.3194 380.572 73.3664 380.76 73.4605C380.98 73.586 381.089 73.8213 381.089 74.1663V77.8365C381.089 78.2757 380.98 78.5266 380.76 78.5894C380.572 78.6521 380.352 78.6835 380.101 78.6835ZM404.601 57.6506C404.318 57.6506 404.099 57.5878 403.942 57.4623C403.785 57.3369 403.707 57.1016 403.707 56.7565V53.3687C403.707 52.9295 403.785 52.6629 403.942 52.5688C404.13 52.4747 404.35 52.4276 404.601 52.4276H409.165V36.006C409.165 35.3786 409.494 35.0649 410.153 35.0649H414.435C415.031 35.0649 415.329 35.3786 415.329 36.006V77.0366C415.329 77.413 415.266 77.6483 415.141 77.7424C415.015 77.8679 414.78 77.9306 414.435 77.9306H410.153C409.808 77.9306 409.557 77.8836 409.4 77.7894C409.243 77.6953 409.165 77.4444 409.165 77.0366V57.6506H404.601ZM423.752 79.5304H419.093C418.748 79.5304 418.513 79.4677 418.387 79.3422C418.262 79.2167 418.199 78.9815 418.199 78.6364V35.2061C418.199 34.861 418.262 34.6257 418.387 34.5003C418.544 34.3748 418.795 34.312 419.14 34.312H423.752C424.097 34.312 424.332 34.3748 424.457 34.5003C424.583 34.6257 424.646 34.861 424.646 35.2061V78.6364C424.646 78.9815 424.583 79.2167 424.457 79.3422C424.332 79.4677 424.097 79.5304 423.752 79.5304ZM387.662 68.614C387.222 68.865 386.909 68.9904 386.72 68.9904C386.564 68.9591 386.36 68.7709 386.109 68.4258L384.085 65.6967C383.615 65.1007 383.725 64.5674 384.415 64.0969C387.677 61.9011 390.281 59.5954 392.226 57.18C394.171 54.7646 395.598 52.4433 396.508 50.2161C396.602 49.9652 396.664 49.7456 396.696 49.5574C396.727 49.3692 396.523 49.275 396.084 49.275H387.426C387.018 49.275 386.768 49.1809 386.673 48.9927C386.611 48.8045 386.579 48.5536 386.579 48.2399V44.9932C386.579 44.6481 386.626 44.4129 386.72 44.2874C386.846 44.1305 387.097 44.0521 387.473 44.0521H400.884C401.636 44.0521 402.232 44.1619 402.672 44.3815C403.142 44.5697 403.487 44.8363 403.707 45.1814C403.958 45.5265 404.083 45.9342 404.083 46.4048C404.115 46.8753 404.067 47.3615 403.942 47.8634C403.252 50.6239 402.013 53.4001 400.225 56.1919C401.072 57.5721 402.091 58.8269 403.283 59.9562C404.475 61.0541 405.667 62.0736 406.859 63.0147C407.299 63.3597 407.487 63.642 407.424 63.8616C407.393 64.0498 407.251 64.3008 407 64.6145L404.883 67.3436C404.601 67.6886 404.35 67.8768 404.13 67.9082C403.942 67.9082 403.675 67.7827 403.33 67.5318C402.797 67.1554 402.232 66.7162 401.636 66.2143C401.04 65.7124 400.444 65.1791 399.848 64.6145C399.252 64.0185 398.672 63.4225 398.107 62.8264C397.574 62.1991 397.104 61.5874 396.696 60.9914C395.378 62.4971 393.951 63.9087 392.414 65.2262C390.908 66.5123 389.324 67.6416 387.662 68.614ZM401.025 41.6524H390.579C390.328 41.6524 390.093 41.5896 389.873 41.4642C389.685 41.3387 389.591 41.0721 389.591 40.6643V37.4176C389.591 37.0098 389.685 36.7431 389.873 36.6177C390.093 36.4922 390.328 36.4294 390.579 36.4294H401.025C401.715 36.4294 402.06 36.7745 402.06 37.4646V40.6172C402.06 41.3073 401.715 41.6524 401.025 41.6524ZM458.412 43.4256C458.005 44.9923 457.441 46.5903 456.72 48.2196C455.999 49.8489 455.122 51.4939 454.088 53.1546C454.683 54.0633 455.357 54.9406 456.109 55.7866C456.861 56.6326 457.629 57.4473 458.412 58.2306C459.227 58.9826 460.01 59.6876 460.762 60.3456C461.545 61.0036 462.266 61.5833 462.924 62.0846C463.457 62.4919 463.441 63.0246 462.877 63.6826L460.668 66.4556C460.417 66.7689 460.135 66.8786 459.822 66.7846C459.509 66.6906 459.148 66.5026 458.741 66.2206C458.24 65.8759 457.644 65.4059 456.955 64.8106C456.266 64.1839 455.545 63.5103 454.793 62.7896C454.041 62.0376 453.305 61.2543 452.584 60.4396C451.863 59.5936 451.205 58.7789 450.61 57.9956C449.012 59.9696 447.242 61.8496 445.299 63.6356C443.356 65.3903 441.273 66.9726 439.048 68.3826C438.766 68.5706 438.531 68.6489 438.343 68.6176C438.186 68.5863 437.983 68.4139 437.732 68.1006L435.523 65.1396C435.272 64.7949 435.178 64.5286 435.241 64.3406C435.335 64.1213 435.523 63.9176 435.805 63.7296C437.622 62.4763 439.346 61.0819 440.975 59.5466C442.604 58.0113 444.093 56.3976 445.44 54.7056C446.819 53.0136 448.009 51.2746 449.012 49.4886C450.046 47.7026 450.861 45.9166 451.456 44.1306C451.644 43.5039 451.393 43.1906 450.704 43.1906H439.33C438.891 43.1906 438.625 43.1123 438.531 42.9556C438.468 42.7676 438.437 42.5169 438.437 42.2036V38.8196C438.437 38.4436 438.5 38.1929 438.625 38.0676C438.782 37.9109 439.032 37.8326 439.377 37.8326H454.887C456.109 37.8326 457.065 38.0989 457.754 38.6316C458.443 39.1643 458.788 39.9476 458.788 40.9816C458.788 41.4203 458.741 41.8433 458.647 42.2506C458.584 42.6579 458.506 43.0496 458.412 43.4256ZM477.635 56.6326H471.807V78.5346C471.807 78.9106 471.744 79.1456 471.619 79.2396C471.525 79.3649 471.306 79.4276 470.961 79.4276H466.214C465.869 79.4276 465.619 79.3649 465.462 79.2396C465.337 79.1456 465.274 78.9106 465.274 78.5346V35.2476C465.274 34.9029 465.337 34.6679 465.462 34.5426C465.619 34.4173 465.869 34.3546 466.214 34.3546H470.961C471.306 34.3546 471.525 34.4173 471.619 34.5426C471.744 34.6679 471.807 34.9029 471.807 35.2476V51.2746H477.635C477.917 51.2746 478.136 51.3216 478.293 51.4156C478.481 51.4783 478.575 51.7289 478.575 52.1676V55.7396C478.575 56.1156 478.481 56.3663 478.293 56.4916C478.136 56.5856 477.917 56.6326 477.635 56.6326ZM518.835 50.3346H513.007V58.8416C513.007 59.1863 512.944 59.4213 512.819 59.5466C512.725 59.6719 512.506 59.7346 512.161 59.7346H507.414C506.787 59.7346 506.474 59.4213 506.474 58.7946V35.2476C506.474 34.6523 506.787 34.3546 507.414 34.3546H512.161C512.725 34.3546 513.007 34.6523 513.007 35.2476V44.9766H518.835C519.117 44.9766 519.336 45.0236 519.493 45.1176C519.681 45.1803 519.775 45.4153 519.775 45.8226V49.3946C519.775 49.7706 519.681 50.0213 519.493 50.1466C519.336 50.2719 519.117 50.3346 518.835 50.3346ZM503.795 57.4786C502.385 57.7606 500.85 58.0113 499.189 58.2306C497.528 58.4499 495.805 58.6223 494.019 58.7476C492.264 58.8729 490.494 58.9669 488.708 59.0296C486.953 59.0609 485.261 59.0453 483.632 58.9826C482.253 58.9513 481.329 58.7006 480.859 58.2306C480.42 57.7606 480.201 56.9303 480.201 55.7396V47.3736C480.201 46.3709 480.405 45.6973 480.812 45.3526C481.219 44.9766 481.924 44.7886 482.927 44.7886H493.126C493.408 44.7886 493.58 44.7573 493.643 44.6946C493.737 44.6006 493.784 44.4126 493.784 44.1306V41.6866C493.784 41.4046 493.737 41.2323 493.643 41.1696C493.58 41.0756 493.408 41.0286 493.126 41.0286H481.329C480.702 41.0286 480.389 40.7309 480.389 40.1356V36.6106C480.389 36.2659 480.452 36.0466 480.577 35.9526C480.734 35.8273 480.984 35.7646 481.329 35.7646H497.074C497.763 35.7646 498.312 35.8273 498.719 35.9526C499.158 36.0466 499.487 36.2189 499.706 36.4696C499.925 36.7203 500.066 37.0493 500.129 37.4566C500.223 37.8639 500.27 38.3809 500.27 39.0076V46.4336C500.27 47.7496 500.019 48.6269 499.518 49.0656C499.048 49.5043 498.249 49.7236 497.121 49.7236H487.251C486.844 49.7236 486.64 49.9273 486.64 50.3346V53.1546C486.64 53.5306 486.875 53.7343 487.345 53.7656C490.102 53.8283 492.797 53.7499 495.429 53.5306C498.092 53.3113 500.677 52.9823 503.184 52.5436C503.497 52.4809 503.701 52.5123 503.795 52.6376C503.889 52.7316 503.967 52.9039 504.03 53.1546L504.547 56.5386C504.61 56.8833 504.578 57.1183 504.453 57.2436C504.359 57.3376 504.14 57.4159 503.795 57.4786ZM509.67 78.7226H488.473C487.69 78.7226 487.047 78.6756 486.546 78.5816C486.076 78.4876 485.7 78.2996 485.418 78.0176C485.167 77.7669 484.995 77.4223 484.901 76.9836C484.807 76.5449 484.76 75.9809 484.76 75.2916V65.7506C484.76 64.3719 484.995 63.4476 485.465 62.9776C485.966 62.5076 486.875 62.2726 488.191 62.2726H509.435C510.218 62.2726 510.845 62.3353 511.315 62.4606C511.785 62.5546 512.145 62.7426 512.396 63.0246C512.678 63.2753 512.866 63.6356 512.96 64.1056C513.054 64.5443 513.101 65.1083 513.101 65.7976V75.3386C513.101 76.0279 513.038 76.5919 512.913 77.0306C512.819 77.4693 512.631 77.8139 512.349 78.0646C512.098 78.3153 511.754 78.4876 511.315 78.5816C510.876 78.6756 510.328 78.7226 509.67 78.7226ZM506.568 68.1476C506.568 67.7716 506.396 67.5836 506.051 67.5836H491.857C491.45 67.5836 491.246 67.7873 491.246 68.1946V72.8476C491.246 73.2236 491.45 73.4116 491.857 73.4116H506.004C506.223 73.4116 506.364 73.3803 506.427 73.3176C506.521 73.2863 506.568 73.1139 506.568 72.8006V68.1476Z" fill="#3A3A3A"/>
<g clip-path="url(#clip0_402_13)">
<path d="M19.5777 31.5735C19.5777 31.5735 55.6025 31.854 62.3291 41.8032C69.0557 51.7523 56.5154 6.48395 4.16113 25.6887C4.16113 25.6887 9.3986 55.118 34.0764 62.1298C58.7542 69.1416 54.6897 90.2995 54.6897 90.2995H59.9169C59.9169 90.2995 54.552 68.0147 70.2491 60.8651C85.9462 53.7156 110.757 36.056 111.598 14.6126C111.598 14.6126 74.8797 2.41964 56.3726 33.955" fill="#0ABF53"/>
</g>
<path d="M71.6049 15.4106C68.138 13.8148 64.4779 12.6923 60.7242 12.0687C57.4676 11.5276 54.1404 11.3621 50.8076 11.5887C44.5202 12.0163 38.4424 13.8241 32.9905 16.8419C32.9904 16.8419 32.9903 16.842 32.9901 16.8421C30.4731 18.2354 28.0895 19.8865 25.8802 21.7789M71.6049 15.4106L21.4796 29.2367M71.6049 15.4106C68.1077 14.0492 64.4278 13.1377 60.6519 12.7161C57.3868 12.3516 54.1111 12.3601 50.8852 12.7289C44.9239 13.4105 39.1323 15.3223 33.8911 18.3837L33.888 18.3856C31.4803 19.7861 29.2192 21.4125 27.1338 23.2394M71.6049 15.4106L21.4796 29.2367M25.8802 21.7789C24.249 23.1789 22.7215 24.694 21.3094 26.3121L23.356 26.8605L22.1949 28.3407M25.8802 21.7789L27.1338 23.2394M25.8802 21.7789L27.1323 23.2407M22.1949 28.3407C21.9543 28.6341 21.7174 28.9307 21.4843 29.2306C21.4827 29.2326 21.4811 29.2346 21.4796 29.2367M22.1949 28.3407L21.9711 28.6261C21.8054 28.8281 21.6416 29.0316 21.4796 29.2367M22.1949 28.3407C23.7007 26.5052 25.3525 24.7999 27.1323 23.2407M27.1323 23.2407L27.1813 23.2978C27.1815 23.2977 27.1816 23.2976 27.1818 23.2974C27.1821 23.2972 27.1825 23.2969 27.1828 23.2966L27.1338 23.2394M27.1323 23.2407C27.1328 23.2402 27.1333 23.2398 27.1338 23.2394M20.7607 30.1959C20.9957 29.873 21.2353 29.5533 21.4794 29.2369C21.4772 29.2397 21.475 29.2425 21.4728 29.2452L20.7607 30.1959ZM20.7607 30.1959C19.3554 32.093 18.1095 34.0978 17.0336 36.1898M20.7607 30.1959L17.0336 36.1898M17.0336 36.1898L17.0955 36.2204C17.0949 36.2214 17.0944 36.2225 17.0939 36.2235C17.0934 36.2246 17.0928 36.2257 17.0923 36.2267L17.0305 36.1958L17.0336 36.1898ZM18.3239 26.7786L18.3199 26.7838L16.4749 29.1579L16.5699 29.1833C13.6031 33.4998 11.3672 38.2834 9.95929 43.3424C8.28376 49.3628 7.81367 55.6549 8.57593 61.8578C9.3382 68.0606 11.3178 74.0522 14.4013 79.4888C17.4847 84.9255 21.6112 89.7003 26.5442 93.5395C31.4772 97.3786 37.1196 100.207 43.1478 101.861C49.1761 103.516 55.4715 103.965 61.6732 103.182C67.8749 102.399 73.8607 100.4 79.2876 97.2987C84.7144 94.1979 89.4753 90.0565 93.2974 85.112L93.299 85.1098C95.2489 82.5803 96.9485 79.8675 98.3741 77.0097L98.3762 77.0054C102.914 67.855 104.378 57.485 102.551 47.4356C100.724 37.3862 95.7031 28.1935 88.235 21.2226C80.7668 14.2518 71.2492 9.87451 61.0957 8.74084C50.9428 7.60724 40.6954 9.7773 31.8752 14.9289C26.6425 17.973 22.0437 21.9937 18.3287 26.7725L18.3266 26.7751L18.3239 26.7786ZM13.2792 60.2314L12.4336 60.3571C12.4337 60.358 12.4338 60.3589 12.4339 60.3598L13.2799 60.2361C13.2798 60.2353 13.2797 60.2345 13.2796 60.2337C13.2795 60.2329 13.2793 60.2321 13.2792 60.2314ZM74.2572 89.5365C74.2564 89.537 74.2557 89.5374 74.2549 89.5379L75.2631 91.2652L74.2572 89.5365Z" fill="#0ABF53" stroke="white" stroke-width="4"/>
<path fill-rule="evenodd" clip-rule="evenodd" d="M10.4041 55.7666C22.455 93.0912 36.6812 91.2501 44.4469 90.2451C44.5674 90.2295 44.6863 90.2141 44.8037 90.1991C28.2487 81.8344 23.9495 76.114 23.2826 72.7647C22.8339 70.5116 25.5327 70.2029 27.3418 71.619C29.9196 73.6366 33.6015 76.3061 36.2797 77.3708C38.453 78.2347 40.9886 78.7124 43.2755 79.1432C44.8185 79.4339 46.2483 79.7033 47.3774 80.0556C62.9292 80.6657 71.8199 90.0618 75.5889 96.9149C69.3863 100.204 62.3116 102.067 54.8018 102.067C30.2604 102.067 10.3657 82.1721 10.3657 57.6308C10.3657 57.0063 10.3786 56.3848 10.4041 55.7666Z" fill="#0ABF53"/>
<g clip-path="url(#clip1_402_13)">
<path d="M19.5777 31.5735C19.5777 31.5735 55.6025 31.854 62.3291 41.8032C69.0557 51.7523 56.5154 6.48395 4.16113 25.6887C4.16113 25.6887 9.3986 55.118 34.0764 62.1298C58.7542 69.1416 54.6897 90.2995 54.6897 90.2995H59.9169C59.9169 90.2995 54.552 68.0147 70.2491 60.8651C85.9462 53.7156 110.757 36.056 111.598 14.6126C111.598 14.6126 74.8797 2.41964 56.3726 33.955" fill="#0ABF53"/>
<rect x="26.8018" y="30.1084" width="11.1377" height="5.4209" fill="#0ABF53"/>
</g>
<path d="M45.7756 23.8457L50.5368 25.6675C62.5504 30.2642 67.1726 44.8362 60.0051 55.5172C53.6742 48.3382 44.8035 42.335 37.9441 38.5669C29.1971 33.7619 20.2419 32.368 13.1455 30.978C29.2613 28.7636 50.7929 39.1128 60.4071 52.1004L60.4512 51.9637C62.0436 47.0374 61.8771 41.6751 60.007 36.8474C59.7028 36.0622 59.2791 35.3215 58.755 34.6624C55.7742 30.9141 52.154 27.7226 48.0616 25.2352L45.7756 23.8457Z" fill="white"/>
<defs>
<clipPath id="clip0_402_13">
<rect width="80.264" height="78.1792" fill="white" transform="translate(31.2715 12.2598)"/>
</clipPath>
<clipPath id="clip1_402_13">
<rect width="61" height="78" fill="white" transform="translate(0.241211 12.2139)"/>
</clipPath>
</defs>
</svg>
